HIERARCHY
ROOT hip
{
  OFFSET 0 0 0
  CHANNELS 6 Xposition Yposition Zposition Zrotation Yrotation Xrotation
  JOINT abdomen
  {
    OFFSET 0 20.6881 -0.73152
    CHANNELS 3 Zrotation Xrotation Yrotation
    JOINT chest
    {
      OFFSET 0 11.7043 -0.48768
      CHANNELS 3 Zrotation Xrotation Yrotation
      JOINT neck
      {
        OFFSET 0 22.1894 -2.19456
        CHANNELS 3 Zrotation Xrotation Yrotation
        JOINT head
        {
          OFFSET -0.24384 7.07133 1.2192
          CHANNELS 3 Zrotation Xrotation Yrotation
          JOINT leftEye
          {
            OFFSET 4.14528 8.04674 8.04672
            CHANNELS 3 Zrotation Xrotation Yrotation
            End Site
            {
              OFFSET 1 0 0
            }
          }
          JOINT rightEye
          {
            OFFSET -3.6576 8.04674 8.04672
            CHANNELS 3 Zrotation Xrotation Yrotation
            End Site
            {
              OFFSET 1 0 0
            }
          }
        }
      }
      JOINT rCollar
      {
        OFFSET -2.68224 19.2634 -4.8768
        CHANNELS 3 Zrotation Xrotation Yrotation
        JOINT rShldr
        {
          OFFSET -8.77824 -1.95073 1.46304
          CHANNELS 3 Zrotation Xrotation Yrotation
          JOINT rForeArm
          {
            OFFSET -28.1742 -1.7115 0.48768
            CHANNELS 3 Zrotation Xrotation Yrotation
            JOINT rHand
            {
              OFFSET -22.5879 0.773209 7.07136
              CHANNELS 3 Zrotation Xrotation Yrotation
              JOINT rThumb1
              {
                OFFSET -1.2192 -0.487915 3.41376
                CHANNELS 3 Zrotation Xrotation Yrotation
                JOINT rThumb2
                {
                  OFFSET -3.37035 -0.52449 3.41376
                  CHANNELS 3 Zrotation Xrotation Yrotation
                  End Site
                  {
                    OFFSET -1.78271 -1.18214 1.43049
                  }
                }
              }
              JOINT rIndex1
              {
                OFFSET -7.75947 0.938293 5.60832
                CHANNELS 3 Zrotation Xrotation Yrotation
                JOINT rIndex2
                {
                  OFFSET -2.54057 -0.884171 1.56538
                  CHANNELS 3 Zrotation Xrotation Yrotation
                  End Site
                  {
                    OFFSET -1.62519 -0.234802 1.16502
                  }
                }
              }
              JOINT rMid1
              {
                OFFSET -8.24714 1.18213 3.41376
                CHANNELS 3 Zrotation Xrotation Yrotation
                JOINT rMid2
                {
                  OFFSET -3.10165 -0.590103 1.0647
                  CHANNELS 3 Zrotation Xrotation Yrotation
                  End Site
                  {
                    OFFSET -2.48547 -0.328903 0.83742
                  }
                }
              }
              JOINT rRing1
              {
                OFFSET -8.82822 0.546677 1.51678
                CHANNELS 3 Zrotation Xrotation Yrotation
                JOINT rRing2
                {
                  OFFSET -2.60934 -0.819778 -0.0198488
                  CHANNELS 3 Zrotation Xrotation Yrotation
                  End Site
                  {
                    OFFSET -2.33842 -0.294052 0.168128
                  }
                }
              }
              JOINT rPinky1
              {
                OFFSET -8.27202 -0.0477905 -0.4584
                CHANNELS 3 Zrotation Xrotation Yrotation
                JOINT rPinky2
                {
                  OFFSET -1.82734 -0.647385 -0.700984
                  CHANNELS 3 Zrotation Xrotation Yrotation
                  End Site
                  {
                    OFFSET -1.69225 -0.51767 -0.607171
                  }
                }
              }
            }
          }
        }
      }
      JOINT lCollar
      {
        OFFSET 2.68224 19.2634 -4.8768
        CHANNELS 3 Zrotation Xrotation Yrotation
        JOINT lShldr
        {
          OFFSET 8.77824 -1.95073 1.46304
          CHANNELS 3 Zrotation Xrotation Yrotation
          JOINT lForeArm
          {
            OFFSET 28.1742 -1.7115 0.48768
            CHANNELS 3 Zrotation Xrotation Yrotation
            JOINT lHand
            {
              OFFSET 22.5879 0.773209 7.07136
              CHANNELS 3 Zrotation Xrotation Yrotation
              JOINT lThumb1
              {
                OFFSET 1.2192 -0.487915 3.41376
                CHANNELS 3 Zrotation Xrotation Yrotation
                JOINT lThumb2
                {
                  OFFSET 3.37035 -0.52449 3.41376
                  CHANNELS 3 Zrotation Xrotation Yrotation
                  End Site
                  {
                    OFFSET 1.78271 -1.18214 1.43049
                  }
                }
              }
              JOINT lIndex1
              {
                OFFSET 7.75947 0.938293 5.60832
                CHANNELS 3 Zrotation Xrotation Yrotation
                JOINT lIndex2
                {
                  OFFSET 2.54057 -0.884171 1.56538
                  CHANNELS 3 Zrotation Xrotation Yrotation
                  End Site
                  {
                    OFFSET 1.62519 -0.234802 1.16502
                  }
                }
              }
              JOINT lMid1
              {
                OFFSET 8.24714 1.18213 3.41376
                CHANNELS 3 Zrotation Xrotation Yrotation
                JOINT lMid2
                {
                  OFFSET 3.10165 -0.590103 1.0647
                  CHANNELS 3 Zrotation Xrotation Yrotation
                  End Site
                  {
                    OFFSET 2.48547 -0.328903 0.83742
                  }
                }
              }
              JOINT lRing1
              {
                OFFSET 8.82822 0.546677 1.51678
                CHANNELS 3 Zrotation Xrotation Yrotation
                JOINT lRing2
                {
                  OFFSET 2.60934 -0.819778 -0.0198488
                  CHANNELS 3 Zrotation Xrotation Yrotation
                  End Site
                  {
                    OFFSET 2.33842 -0.294052 0.168128
                  }
                }
              }
              JOINT lPinky1
              {
                OFFSET 8.27202 -0.0477905 -0.4584
                CHANNELS 3 Zrotation Xrotation Yrotation
                JOINT lPinky2
                {
                  OFFSET 1.82734 -0.647385 -0.700984
                  CHANNELS 3 Zrotation Xrotation Yrotation
                  End Site
                  {
                    OFFSET 1.69225 -0.51767 -0.607171
                  }
                }
              }
            }
          }
        }
      }
    }
  }
  JOINT rButtock
  {
    OFFSET -8.77824 4.35084 1.2192
    CHANNELS 3 Zrotation Xrotation Yrotation
    JOINT rThigh
    {
      OFFSET 0 -1.70687 -2.19456
      CHANNELS 3 Zrotation Xrotation Yrotation
      JOINT rShin
      {
        OFFSET 0 -36.8199 0.73152
        CHANNELS 3 Zrotation Xrotation Yrotation
        JOINT rFoot
        {
          OFFSET 0.73152 -45.1104 -5.12064
          CHANNELS 3 Zrotation Xrotation Yrotation
          End Site
          {
            OFFSET -1.1221 -3.69964 12.103
          }
        }
      }
    }
  }
  JOINT lButtock
  {
    OFFSET 8.77824 4.35084 1.2192
    CHANNELS 3 Zrotation Xrotation Yrotation
    JOINT lThigh
    {
      OFFSET 0 -1.70687 -2.19456
      CHANNELS 3 Zrotation Xrotation Yrotation
      JOINT lShin
      {
        OFFSET 0 -36.8199 0.73152
        CHANNELS 3 Zrotation Xrotation Yrotation
        JOINT lFoot
        {
          OFFSET -0.73152 -45.1104 -5.12064
          CHANNELS 3 Zrotation Xrotation Yrotation
          End Site
          {
            OFFSET 1.1221 -3.69964 12.103
          }
        }
      }
    }
  }
}
MOTION
Frames:	5
Frame Time:	0.03333
-37.9225 73.518 -216.32999999999998 278.92 -78.6374 444.977 14.220300000000002 13.9339 6.538549999999999 -0.664148 -11.2865 2.11088 -5.98549 14.149400000000002 -5.51677 6.779070000000001 -33.16279999999999 -8.91961 -0.0 0.0 0.0 -0.0 0.0 0.0 2.2597699999999997e-13 2.57402e-12 2.71341e-14 19.9061 -4.10226 69.3481 -27.6279 -28.7255 65.2183 -18.3417 -71.7207 -25.1806 2.3104499999999998e-10 2.58239e-10 3.4254600000000004e-10 3.8069099999999996e-10 4.96994e-10 5.926410000000001e-10 2.3104899999999996e-10 2.58234e-10 3.42533e-10 7.730909999999999 5.47488 0.417314 2.31044e-10 2.58242e-10 3.42543e-10 2.90554 0.965183 0.102902 2.3105e-10 2.58242e-10 3.4254600000000004e-10 10.278600000000003 0.731801 0.0259123 2.3104499999999998e-10 2.58242e-10 3.42555e-10 2.22167 -0.733487 -0.20892000000000002 2.25677e-13 2.574e-12 2.69353e-14 -34.36729999999999 44.489200000000004 -58.1301 27.0473 -43.8877 -91.2215 0.200766 12.6621 -1.80939 1.186e-10 -4.58153e-10 5.71975e-10 2.1390000000000003e-10 -7.840510000000001e-10 9.85224e-10 1.18584e-10 -4.5816400000000003e-10 5.71997e-10 -7.730909999999999 5.47488 -0.417314 1.1859599999999997e-10 -4.5816e-10 5.71972e-10 -2.90554 0.965183 -0.102902 1.1859399999999998e-10 -4.58152e-10 5.71974e-10 -10.278600000000003 0.731801 -0.0259123 1.18604e-10 -4.5815000000000007e-10 5.71969e-10 -2.22167 -0.733487 0.20892000000000002 -2.03217e-16 0.0 -3.88251e-19 0.9533809999999999 -17.979199999999995 -25.6385 -0.5372660000000001 54.0131 2.03823 -14.4555 -15.7567 -32.58919999999999 2.03217e-16 0.0 3.88251e-19 29.146 -69.4858 28.749600000000004 166.505 85.177 -167.197 1.23617 0.875691 6.579600000000001
-39.3132 73.5965 -216.22699999999998 270.107 -78.5818 453.523 13.077199999999998 13.9849 5.83555 -0.48384699999999997 -11.227699999999999 1.8734300000000002 -5.43905 14.3874 -4.52269 7.16125 -32.459 -6.85794 -0.0 0.0 0.0 -0.0 0.0 0.0 -5.214040000000001e-14 -5.2344e-12 -1.5818000000000001e-13 24.0163 2.9794400000000003 67.29539999999999 -28.6884 -35.501 74.9749 -7.61287 -59.90630000000001 -13.595099999999999 -1.36936e-09 -1.43479e-09 -9.844400000000002e-10 -2.3278399999999997e-09 -2.4827e-09 -1.7468800000000003e-09 -1.36935e-09 -1.43479e-09 -9.84448e-10 7.730909999999999 5.47488 0.417314 -1.36936e-09 -1.4348000000000003e-09 -9.84445e-10 2.90554 0.965183 0.102902 -1.36935e-09 -1.43479e-09 -9.84445e-10 10.278600000000003 0.731801 0.0259123 -1.36936e-09 -1.43479e-09 -9.84441e-10 2.22167 -0.733487 -0.20892000000000002 -5.23305e-14 -5.23441e-12 -1.58382e-13 -32.0209 35.1855 -62.9171 28.3347 -39.1363 -83.1818 0.0769986 6.43117 -0.920111 5.41592e-10 2.9572e-10 3.05169e-10 9.34303e-10 5.09331e-10 5.28014e-10 5.41583e-10 2.95714e-10 3.05185e-10 -7.730909999999999 5.47488 -0.417314 5.41589e-10 2.95715e-10 3.05168e-10 -2.90554 0.965183 -0.102902 5.41589e-10 2.95719e-10 3.05168e-10 -10.278600000000003 0.731801 -0.0259123 5.41598e-10 2.95719e-10 3.05161e-10 -2.22167 -0.733487 0.20892000000000002 -2.03217e-16 0.0 -3.88251e-19 0.602493 -16.3712 -25.1714 -0.504478 53.1962 2.03593 -14.295199999999998 -15.159399999999998 -32.53820000000001 2.03217e-16 0.0 3.88251e-19 35.09780000000001 -70.54089999999998 34.8661 38.7087 88.3673 -39.3351 0.64325 -1.52413 2.49336
-40.8396 73.6922 -216.17700000000002 257.83299999999997 -78.05079999999998 465.21199999999993 11.4301 13.8691 5.243119999999999 0.11711900000000001 -11.0352 1.69607 -5.12692 14.3679 -3.3825099999999995 7.96627 -30.78119999999999 -4.44474 -0.0 0.0 0.0 -0.0 0.0 0.0 -3.41188e-13 -1.03657e-11 -2.9966800000000003e-13 27.0532 13.0323 65.0033 -27.7415 -41.6046 86.84849999999999 -3.49804 -45.71809999999999 -8.28566 -2.76178e-09 -2.57245e-09 -1.79427e-09 -4.69776e-09 -4.501159999999999e-09 -3.1881100000000005e-09 -2.76178e-09 -2.57244e-09 -1.7942800000000001e-09 7.730909999999999 5.47488 0.417314 -2.76178e-09 -2.5724700000000003e-09 -1.7942800000000001e-09 2.90554 0.965183 0.102902 -2.76177e-09 -2.57244e-09 -1.7942800000000001e-09 10.278600000000003 0.731801 0.0259123 -2.76178e-09 -2.57244e-09 -1.7942800000000001e-09 2.22167 -0.733487 -0.20892000000000002 -3.4126200000000005e-13 -1.03657e-11 -2.99867e-13 -31.757600000000004 26.0934 -67.7606 28.358800000000002 -33.5991 -73.0449 0.0096023 2.79669 -0.393365 9.54612e-10 9.205670000000001e-10 1.4670899999999997e-10 1.6429899999999997e-09 1.58203e-09 2.59213e-10 9.54611e-10 9.205670000000001e-10 1.46716e-10 -7.730909999999999 5.47488 -0.417314 9.54613e-10 9.20566e-10 1.46706e-10 -2.90554 0.965183 -0.102902 9.5461e-10 9.205640000000001e-10 1.46706e-10 -10.278600000000003 0.731801 -0.0259123 9.5462e-10 9.205640000000001e-10 1.46697e-10 -2.22167 -0.733487 0.20892000000000002 -2.03217e-16 0.0 -3.88251e-19 0.20541 -14.690599999999998 -24.4622 -0.481675 52.3035 1.98513 -14.0411 -14.2728 -32.6007 2.03217e-16 0.0 3.88251e-19 39.4881 -70.1888 38.1247 5.92692 81.2782 -6.43433 -0.0531935 -1.47512 -1.23099
-42.4347 73.8079 -216.08499999999998 245.21600000000004 -77.158 477.07899999999995 8.96014 13.8 5.07052 1.37611 -10.814 1.67919 -4.95348 13.793 -2.1224799999999995 8.97447 -27.8151 -1.85127 -0.0 0.0 0.0 -0.0 0.0 0.0 -4.01801e-13 4.86985e-13 -1.51946e-13 28.691 24.8451 59.891400000000004 -25.476400000000005 -47.7915 98.692 -4.05307 -48.05499999999999 -9.03046 -2.07245e-09 -1.16615e-09 -4.48251e-10 -3.56405e-09 -2.072e-09 -8.47553e-10 -2.0724399999999995e-09 -1.16614e-09 -4.48266e-10 7.730909999999999 5.47488 0.417314 -2.07245e-09 -1.16616e-09 -4.4825999999999996e-10 2.90554 0.965183 0.102902 -2.07243e-09 -1.16614e-09 -4.4825999999999996e-10 10.278600000000003 0.731801 0.0259123 -2.07245e-09 -1.16613e-09 -4.482559999999999e-10 2.22167 -0.733487 -0.20892000000000002 -4.01936e-13 4.86986e-13 -1.52095e-13 -30.0466 18.3123 -75.70900000000002 27.2187 -26.373399999999997 -56.08939999999999 0.697186 -5.21039 0.236331 1.64074e-09 9.02052e-10 -3.97149e-10 2.80547e-09 1.5347299999999997e-09 -6.77738e-10 1.64074e-09 9.020529999999998e-10 -3.97142e-10 -7.730909999999999 5.47488 -0.417314 1.64076e-09 9.0206e-10 -3.971749999999999e-10 -2.90554 0.965183 -0.102902 1.64074e-09 9.020540000000001e-10 -3.97158e-10 -10.278600000000003 0.731801 -0.0259123 1.64075e-09 9.02057e-10 -3.97173e-10 -2.22167 -0.733487 0.20892000000000002 -2.03217e-16 0.0 -3.88251e-19 -0.48495799999999994 -12.8984 -23.0587 -0.466315 51.50959999999999 1.91705 -14.0191 -14.3568 -32.0452 2.03217e-16 0.0 3.88251e-19 40.8925 -68.3528 36.8813 2.5004400000000007 72.5085 -2.83356 0.0492506 4.63344 -3.40238
-44.0942 74.0048 -215.858 231.912 -75.42679999999999 489.587 6.49841 13.835 5.23028 2.61464 -10.5797 1.75823 -5.0354 12.5734 -0.878264 10.1299 -24.4141 0.695518 -0.0 0.0 0.0 -0.0 0.0 0.0 -4.00307e-13 1.20987e-11 4.82053e-15 31.473099999999995 38.88289999999999 52.910799999999995 -21.6209 -51.98149999999999 110.117 -5.442079999999999 -53.2238 -10.8377 -1.03356e-09 7.745190000000001e-10 1.40228e-09 -1.8459600000000001e-09 1.29194e-09 2.3736e-09 -1.03355e-09 7.745409999999999e-10 1.40226e-09 7.730909999999999 5.47488 0.417314 -1.03356e-09 7.745220000000002e-10 1.40227e-09 2.90554 0.965183 0.102902 -1.03354e-09 7.74548e-10 1.40227e-09 10.278600000000003 0.731801 0.0259123 -1.03356e-09 7.74554e-10 1.40228e-09 2.22167 -0.733487 -0.20892000000000002 -4.00524e-13 1.20987e-11 4.721140000000001e-15 -37.9531 9.52359 -80.1951 20.749199999999995 -13.9842 -40.5313 0.00302699 1.57076 -0.220812 1.8875600000000005e-09 6.36769e-10 -3.2976e-10 3.26343e-09 1.1034199999999997e-09 -5.80093e-10 1.8875600000000005e-09 6.36769e-10 -3.2975e-10 -7.730909999999999 5.47488 -0.417314 1.8876e-09 6.36783e-10 -3.29804e-10 -2.90554 0.965183 -0.102902 1.8875600000000005e-09 6.36775e-10 -3.29773e-10 -10.278600000000003 0.731801 -0.0259123 1.88757e-09 6.36781e-10 -3.29792e-10 -2.22167 -0.733487 0.20892000000000002 -2.03217e-16 0.0 -3.88251e-19 -1.24497 -11.1421 -21.197 -0.4541699999999999 50.6565 1.82282 -13.9894 -14.5782 -31.3465 2.03217e-16 0.0 3.88251e-19 40.5604 -65.516 32.7752 1.37611 63.17819999999999 -1.49973 0.785027 13.0264 -4.37737
